<svg xmlns="http://www.w3.org/2000/svg" version="1.1" xmlns:xlink="http://www.w3.org/1999/xlink" xmlns:svgjs="http://svgjs.com/svgjs" width="1000" height="1000"><g transform="matrix(1,0,0,1,0,0)" style="filter: contrast(1) brightness(1)"><svg xmlns="http://www.w3.org/2000/svg" version="1.1" xmlns:xlink="http://www.w3.org/1999/xlink" xmlns:svgjs="http://svgjs.com/svgjs" width="800px" height="800px"><svg height="800px" width="800px" version="1.1" id="Layer_1" xmlns="http://www.w3.org/2000/svg" xmlns:xlink="http://www.w3.org/1999/xlink" viewBox="0 0 512 512" xml:space="preserve">
<g>
	<path style="fill:#FCD051;" d="M181.335,234.667v63.997C280.057,325.119,387.551,376.89,458.663,448V298.667V256v-42.665V63.999
		C387.552,135.11,280.057,186.88,181.335,213.335V234.667z"></path>
	<path style="fill:#D12D4E;" d="M458.663,256v42.667h21.335c11.734,0,21.335-9.599,21.335-21.334v-42.665
		c0-11.733-9.601-21.333-21.335-21.333h-21.335V256z"></path>
	<path style="fill:#ED8C18;" d="M181.335,298.665v-63.997v-21.333c0-11.736-9.603-21.335-21.335-21.335H74.668
		c-11.732,0-21.333,9.599-21.333,21.335v85.329c0,11.736,9.601,21.335,21.333,21.335h10.666h64H160
		C171.732,319.999,181.335,310.401,181.335,298.665z"></path>
	<path style="fill:#D12D4E;" d="M53.335,298.665v-85.329H32.001c-11.734,0-21.334,9.599-21.334,21.333v64L53.335,298.665z"></path>
	<path style="fill:#FCD051;" d="M149.334,319.999h-64v106.669c0,11.732,9.599,21.333,21.332,21.333h21.333
		c11.736,0,21.335-9.601,21.335-21.333V319.999z"></path>
</g>
<g>
	<path style="fill:#000003;" d="M479.998,202.668H469.33V63.999c0-4.315-2.599-8.204-6.586-9.856
		c-3.985-1.651-8.573-0.738-11.625,2.313c-60.847,60.847-158.167,114.103-261.989,143.654
		c-5.044-11.063-16.199-18.778-29.131-18.778h-85.33c-13.905,0-25.761,8.919-30.164,21.335H32.001
		C14.355,202.668,0,217.023,0,234.667v64c0,5.892,4.776,10.668,10.667,10.668h33.836c4.405,12.415,16.259,21.332,30.163,21.333
		v96.001c0,17.645,14.355,32,31.999,32h21.333c17.646,0,32.002-14.355,32.002-32v-96.001c12.93-0.001,24.086-7.715,29.129-18.778
		c103.822,29.552,201.142,82.806,261.989,143.655c2.041,2.041,4.769,3.124,7.545,3.124c1.374,0,2.761-0.266,4.079-0.812
		c3.986-1.651,6.586-5.541,6.586-9.856V309.335h10.667c17.646,0,32.002-14.356,32.002-32.001v-42.665
		C512,217.023,497.644,202.668,479.998,202.668z M21.335,234.667c0-5.881,4.784-10.665,10.666-10.665h10.666v63.996H21.335V234.667z
		 M138.667,426.668c0,5.881-4.785,10.665-10.667,10.665h-21.333c-5.88,0-10.664-4.784-10.664-10.665v-96.001h42.665L138.667,426.668
		L138.667,426.668z M160,309.331h-10.665h-64H74.668c-5.881,0-10.665-4.785-10.665-10.667v-85.329
		c0-5.882,4.784-10.667,10.665-10.667H160c5.882,0,10.667,4.785,10.667,10.667V224H126.33c-5.892,0-10.667,4.776-10.667,10.667
		s4.776,10.667,10.667,10.667h44.337v53.33C170.667,304.547,165.882,309.331,160,309.331z M447.995,423.312
		c-31.419-27.895-69.222-53.457-112.701-76.18c-44.526-23.27-93.902-42.764-143.291-56.605v-69.055
		c49.389-13.841,98.765-33.335,143.291-56.605c43.48-22.723,81.282-48.284,112.701-76.181v124.647v85.331V423.312z M490.665,277.332
		c0,5.882-4.785,10.666-10.667,10.666H469.33v-63.996h10.667c5.882,0,10.667,4.784,10.667,10.665V277.332z"></path>
	<path style="fill:#000003;" d="M398.787,334.183c-0.21-0.139-0.436-0.277-0.632-0.389c-5.1-2.946-11.625-1.2-14.572,3.902
		c-2.902,5.022-1.253,11.424,3.667,14.432c1.756,1.104,3.718,1.632,5.659,1.632c3.467,0,6.868-1.689,8.917-4.8
		C405.069,344.04,403.707,337.424,398.787,334.183z"></path>
	<path style="fill:#000003;" d="M370.487,317.594c-44.464-24.642-92.673-45.202-143.288-61.111
		c-5.621-1.765-11.609,1.357-13.376,6.979c-1.767,5.621,1.358,11.609,6.978,13.376c48.558,15.261,96.742,35.808,139.346,59.418
		c1.637,0.908,3.41,1.339,5.161,1.339c3.753,0,7.393-1.984,9.34-5.498C377.503,326.942,375.642,320.45,370.487,317.594z"></path>
	<path style="fill:#000003;" d="M95.432,245.339h0.254c5.891,0,10.667-4.776,10.667-10.667s-4.777-10.667-10.667-10.667h-0.254
		c-5.892,0-10.667,4.776-10.667,10.667S89.541,245.339,95.432,245.339z"></path>
	<path style="fill:#000003;" d="M139.235,266.665H95.432c-5.892,0-10.667,4.776-10.667,10.667S89.541,288,95.432,288h43.803
		c5.893,0,10.667-4.776,10.667-10.667S145.128,266.665,139.235,266.665z"></path>
</g>
</svg></svg></g></svg>