<?xml version="1.0" encoding="utf-8"?>
<!-- Uploaded to: SVG Repo, www.svgrepo.com, Generator: SVG Repo Mixer Tools -->
<svg width="800px" height="800px" viewBox="0 0 64 64" xmlns="http://www.w3.org/2000/svg">
<defs>
<style>.cls-1{fill:#ffd578;}.cls-1,.cls-3,.cls-4,.cls-5,.cls-6{stroke:#54596e;stroke-linecap:round;stroke-linejoin:round;}.cls-1,.cls-4,.cls-5,.cls-6{stroke-width:2px;}.cls-2,.cls-7{fill:#54596e;}.cls-2{opacity:0.15;}.cls-3,.cls-6{fill:none;}.cls-3{stroke-width:3px;}.cls-4{fill:#999;}.cls-5{fill:#ffffff;}</style>
</defs>
<title>minion-batman</title>
<g id="minion-batman">
<rect class="cls-1" x="16" y="34" width="36" height="29"/>
<path class="cls-2" d="M34,58A17.75,17.75,0,0,1,16,40.5V63H52V40.5A17.75,17.75,0,0,1,34,58Z"/>
<line class="cls-3" x1="30.5" y1="41.5" x2="37.5" y2="41.5"/>
<path class="cls-4" d="M52,5.5a3.5,3.5,0,0,0-7,0V7.77a17.93,17.93,0,0,0-22,0V5.5a3.5,3.5,0,0,0-7,0V34H52V5.5Z"/>
<path class="cls-5" d="M26,17a8,8,0,0,0,16,0Z"/>
<line class="cls-6" x1="23" y1="17" x2="45" y2="17"/>
<path class="cls-7" d="M31,18a3,3,0,0,0,6,0"/>
</g>
</svg>